<svg width="20" height="20" viewBox="0 0 20 20" fill="none" xmlns="http://www.w3.org/2000/svg">
<path opacity="0.4" d="M13.3962 1.66663H16.2178C17.3864 1.66663 18.3333 2.6215 18.3333 3.79993V6.6454C18.3333 7.82382 17.3864 8.7787 16.2178 8.7787H13.3962C12.2276 8.7787 11.2808 7.82382 11.2808 6.6454V3.79993C11.2808 2.6215 12.2276 1.66663 13.3962 1.66663Z" fill="black"/>
<path fill-rule="evenodd" clip-rule="evenodd" d="M3.78194 1.66663H6.60358C7.77214 1.66663 8.71902 2.6215 8.71902 3.79993V6.6454C8.71902 7.82382 7.77214 8.7787 6.60358 8.7787H3.78194C2.61338 8.7787 1.6665 7.82382 1.6665 6.6454V3.79993C1.6665 2.6215 2.61338 1.66663 3.78194 1.66663ZM3.78194 11.2212H6.60358C7.77214 11.2212 8.71902 12.1761 8.71902 13.3545V16.2C8.71902 17.3776 7.77214 18.3333 6.60358 18.3333H3.78194C2.61338 18.3333 1.6665 17.3776 1.6665 16.2V13.3545C1.6665 12.1761 2.61338 11.2212 3.78194 11.2212ZM16.2177 11.2212H13.3961C12.2275 11.2212 11.2807 12.1761 11.2807 13.3545V16.2C11.2807 17.3776 12.2275 18.3333 13.3961 18.3333H16.2177C17.3863 18.3333 18.3332 17.3776 18.3332 16.2V13.3545C18.3332 12.1761 17.3863 11.2212 16.2177 11.2212Z" fill="black"/>
</svg>
