<svg width="20" height="20" viewBox="0 0 20 20" fill="none" xmlns="http://www.w3.org/2000/svg">
<path opacity="0.4" d="M1.6665 5.37258C1.6665 3.33008 3.35837 1.66675 5.43695 1.66675H9.57121C11.6455 1.66675 13.3332 3.32508 13.3332 5.36425V14.6276C13.3332 16.6709 11.6413 18.3334 9.56188 18.3334H5.42932C3.35413 18.3334 1.6665 16.6751 1.6665 14.6359V13.8526V5.37258Z" fill="black"/>
<path d="M18.149 9.54579L15.7775 7.12162C15.5324 6.87162 15.138 6.87162 14.8937 7.12329C14.6502 7.37495 14.651 7.78079 14.8953 8.03079L16.1947 9.35828H14.9489H7.95696C7.61203 9.35828 7.33203 9.64579 7.33203 9.99995C7.33203 10.355 7.61203 10.6416 7.95696 10.6416H16.1947L14.8953 11.9691C14.651 12.2191 14.6502 12.625 14.8937 12.8766C15.0162 13.0025 15.1761 13.0658 15.3368 13.0658C15.4959 13.0658 15.6558 13.0025 15.7775 12.8783L18.149 10.455C18.2667 10.3341 18.3333 10.1708 18.3333 9.99995C18.3333 9.82995 18.2667 9.66662 18.149 9.54579Z" fill="black"/>
</svg>
