<svg width="20" height="20" viewBox="0 0 20 20" fill="none" xmlns="http://www.w3.org/2000/svg">
<path opacity="0.4" d="M1.66699 9.23218C1.70866 11.1805 1.82533 14.513 1.84199 14.8805C1.90116 15.6663 2.20199 16.4605 2.67033 17.0205C3.32199 17.8063 4.12449 18.1572 5.24366 18.1572C6.79033 18.1655 8.49533 18.1655 10.1512 18.1655C11.8137 18.1655 13.427 18.1655 14.7895 18.1572C15.8928 18.1572 16.7203 17.7972 17.3637 17.0205C17.832 16.4605 18.1328 15.658 18.1753 14.8805C18.192 14.5713 18.2753 10.9538 18.3253 9.23218H1.66699Z" fill="#14b8a6"/>
<path d="M9.37109 12.8201V13.8984C9.37109 14.2434 9.65109 14.5234 9.99609 14.5234C10.3411 14.5234 10.6211 14.2434 10.6211 13.8984V12.8201C10.6211 12.4751 10.3411 12.1951 9.99609 12.1951C9.65109 12.1951 9.37109 12.4751 9.37109 12.8201Z" fill="black"/>
<path fill-rule="evenodd" clip-rule="evenodd" d="M8.50949 12.1303C8.42616 12.4328 8.13533 12.6262 7.82033 12.5845C5.69449 12.2878 3.66283 11.5337 1.94783 10.4012C1.77199 10.2862 1.66699 10.0895 1.66699 9.87949V6.99116C1.66699 5.24116 3.09366 3.81783 4.84783 3.81783H6.48699C6.64366 2.60783 7.66866 1.66699 8.92033 1.66699H11.072C12.3228 1.66699 13.3487 2.60783 13.5053 3.81783H15.1528C16.902 3.81783 18.3253 5.24116 18.3253 6.99116V9.87949C18.3253 10.0895 18.2195 10.2853 18.0453 10.4012C16.327 11.5387 14.287 12.2962 12.147 12.592C12.1178 12.5962 12.0895 12.5978 12.0612 12.5978C11.7787 12.5978 11.5262 12.407 11.4553 12.127C11.287 11.4637 10.6845 10.9995 9.99199 10.9995C9.29033 10.9995 8.69449 11.4537 8.50949 12.1303ZM11.072 2.91699H8.92033C8.35949 2.91699 7.89116 3.30033 7.75116 3.81783H12.2403C12.1003 3.30033 11.632 2.91699 11.072 2.91699Z" fill="#14b8a6"/>
</svg>
