<svg width="20" height="20" viewBox="0 0 20 20" fill="none" xmlns="http://www.w3.org/2000/svg">
<path opacity="0.4" fill-rule="evenodd" clip-rule="evenodd" d="M4.92529 17.157C4.92529 16.457 5.49196 15.8904 6.19196 15.8904C6.88363 15.8904 7.45029 16.457 7.45029 17.157C7.45029 17.8487 6.88363 18.4154 6.19196 18.4154C5.49196 18.4154 4.92529 17.8487 4.92529 17.157ZM14.3003 17.157C14.3003 16.457 14.867 15.8904 15.567 15.8904C16.2586 15.8904 16.8253 16.457 16.8253 17.157C16.8253 17.8487 16.2586 18.4154 15.567 18.4154C14.867 18.4154 14.3003 17.8487 14.3003 17.157Z" fill="black"/>
<path fill-rule="evenodd" clip-rule="evenodd" d="M16.8255 5.29078C17.3338 5.29078 17.6671 5.46578 18.0005 5.84912C18.3338 6.23245 18.3921 6.78245 18.3171 7.28162L17.5255 12.7483C17.3755 13.7991 16.4755 14.5733 15.4171 14.5733H6.32546C5.21712 14.5733 4.30046 13.7233 4.20879 12.6241L3.44212 3.53995L2.18379 3.32328C1.85046 3.26495 1.61712 2.93995 1.67546 2.60662C1.73379 2.26495 2.05879 2.03995 2.40046 2.08995L4.38796 2.38995C4.67129 2.44078 4.87962 2.67328 4.90462 2.95662L5.06296 4.82328C5.08796 5.09078 5.30462 5.29078 5.57129 5.29078H16.8255ZM11.7755 9.62328H14.0838C14.4338 9.62328 14.7088 9.33995 14.7088 8.99828C14.7088 8.64828 14.4338 8.37328 14.0838 8.37328H11.7755C11.4255 8.37328 11.1505 8.64828 11.1505 8.99828C11.1505 9.33995 11.4255 9.62328 11.7755 9.62328Z" fill="black"/>
</svg>
